<?xml version="1.0" standalone="no"?><svg xmlns="http://www.w3.org/2000/svg" viewBox="0 0 1440 320"><path fill="#ff5500" fill-opacity="1" d="M0,128L18.5,149.3C36.9,171,74,213,111,213.3C147.7,213,185,171,222,149.3C258.5,128,295,128,332,117.3C369.2,107,406,85,443,74.7C480,64,517,64,554,101.3C590.8,139,628,213,665,213.3C701.5,213,738,139,775,128C812.3,117,849,171,886,181.3C923.1,192,960,160,997,122.7C1033.8,85,1071,43,1108,42.7C1144.6,43,1182,85,1218,128C1255.4,171,1292,213,1329,202.7C1366.2,192,1403,128,1422,96L1440,64L1440,320L1421.5,320C1403.1,320,1366,320,1329,320C1292.3,320,1255,320,1218,320C1181.5,320,1145,320,1108,320C1070.8,320,1034,320,997,320C960,320,923,320,886,320C849.2,320,812,320,775,320C738.5,320,702,320,665,320C627.7,320,591,320,554,320C516.9,320,480,320,443,320C406.2,320,369,320,332,320C295.4,320,258,320,222,320C184.6,320,148,320,111,320C73.8,320,37,320,18,320L0,320Z"></path></svg>